<?xml version="1.0" standalone="no"?>
<!DOCTYPE svg PUBLIC "-//W3C//DTD SVG 20010904//EN"
 "http://www.w3.org/TR/2001/REC-SVG-20010904/DTD/svg10.dtd">
<svg version="1.0" xmlns="http://www.w3.org/2000/svg"
 width="128.000000pt" height="128.000000pt" viewBox="0 0 128.000000 128.000000"
 preserveAspectRatio="xMidYMid meet">
<metadata>
Created by potrace 1.11, written by Peter Selinger 2001-2013
</metadata>
<g transform="translate(0.000000,128.000000) scale(0.100000,-0.100000)"
fill="#000000" stroke="none">
<path d="M0 640 l0 -640 640 0 640 0 0 640 0 640 -640 0 -640 0 0 -640z m607
300 c-4 -16 0 -20 18 -20 18 0 22 4 18 20 -5 19 0 20 64 20 l70 0 79 -257 80
-258 32 -3 32 -3 0 -60 0 -59 -162 2 -163 3 -6 110 c-4 61 -7 113 -8 118 0 4
-17 7 -36 7 -42 0 -44 -6 -48 -140 l-2 -95 -147 -3 -148 -3 0 61 c0 60 0 60
29 60 29 0 31 2 66 118 20 64 47 152 61 195 28 92 28 87 9 87 -12 0 -15 13
-15 60 l0 60 91 0 c86 0 91 -1 86 -20z"/>
<path d="M607 884 c-4 -4 -7 -20 -7 -36 0 -23 4 -28 26 -28 23 0 25 3 22 32
-3 31 -25 48 -41 32z"/>
<path d="M596 748 c-3 -13 -6 -40 -6 -60 0 -37 1 -38 35 -38 39 0 41 7 29 83
-5 30 -11 37 -29 37 -15 0 -25 -8 -29 -22z"/>
</g>
</svg>
