<?xml version="1.0" encoding="utf-8"?>
<!-- Generator: Adobe Illustrator 16.0.0, SVG Export Plug-In . SVG Version: 6.00 Build 0)  -->
<!DOCTYPE svg PUBLIC "-//W3C//DTD SVG 1.1//EN" "http://www.w3.org/Graphics/SVG/1.1/DTD/svg11.dtd">
<svg version="1.1" id="Layer_1" xmlns="http://www.w3.org/2000/svg" xmlns:xlink="http://www.w3.org/1999/xlink" x="0px" y="0px"
	 width="916.251px" height="240.967px" viewBox="0 0 916.251 240.967" enable-background="new 0 0 916.251 240.967"
	 xml:space="preserve">
<g display="none">
	<g display="inline">
		<path d="M326.548,69.118v-11.79h8.549l-1.89-6.12h-18.449l-1.89,6.12h7.02v11.79h-28.619v-11.79h6.12l12.149-39.508h-3.689V6.21
			h34.559l15.929,51.118h6.3v11.79H326.548z M329.877,40.408l-5.939-19.439l-5.85,19.439H329.877z"/>
		<path d="M366.24,69.118v-11.79h3.779V35.818h-3.779V24.119h20.879v33.208h4.32v11.79H366.24z M378.479,1.8
			c6.21,0,9.899,5.04,9.899,9.18c0,4.95-3.51,9.09-9.899,9.09c-5.67,0-9.72-4.77-9.72-9.09C368.759,6.84,372.179,1.8,378.479,1.8z"
			/>
		<path d="M395.938,69.118v-11.79h3.96V35.818h-3.87V24.119h16.919l2.7,5.76c2.34-4.32,4.68-8.01,13.949-8.01v16.199
			c-8.1,0-12.689,2.07-12.689,9.99v9.27h4.5v11.79H395.938z"/>
		<path d="M462.535,12.6c-0.99-0.45-2.52-0.9-4.95-0.9c-1.979,0-2.88,1.53-2.88,4.77v7.65h8.189v11.699h-8.189v21.509h5.4v11.79
			h-26.819v-11.79h3.6V35.818h-3.689V24.119h3.689v-7.65c0-5.13,1.62-16.469,17.819-16.469c4.68,0,10.89,1.08,13.23,2.25
			L462.535,12.6z"/>
		<path d="M467.936,69.118v-11.79h3.779V35.818h-3.779V24.119h20.879v33.208h4.32v11.79H467.936z M480.176,1.8
			c6.209,0,9.898,5.04,9.898,9.18c0,4.95-3.51,9.09-9.898,9.09c-5.67,0-9.721-4.77-9.721-9.09C470.455,6.84,473.875,1.8,480.176,1.8
			z"/>
		<path d="M542.812,62.907c-6.66,5.76-13.859,7.83-23.219,7.83c-11.16,0-23.76-7.109-23.76-24.389
			c0-14.759,10.619-23.489,24.209-23.489c10.709,0,18.9,5.49,21.51,13.05c1.08,3.15,2.07,10.08,0.18,15.209h-28.35
			c0.541,2.43,1.711,7.379,9.27,7.379c3.061,0,7.74-0.271,12.6-4.32L542.812,62.907z M527.242,42.208
			c-0.09-3.42-0.898-7.2-6.658-7.2c-5.49,0-6.75,4.95-6.93,7.2H527.242z"/>
		<path d="M546.414,69.118v-11.79h3.869V13.229h-3.779V1.62h20.879v55.708h5.311v11.79H546.414z"/>
		<path d="M603.021,13.319V1.62h22.408v55.797h4.32v11.7h-21.059l-1.529-3.33c-1.172,1.08-5.131,4.14-11.34,4.14
			c-12.689,0-20.879-11.249-20.879-23.759c0-14.039,9.809-22.949,20.879-22.949c6.389,0,9.629,2.34,11.34,3.419V13.319H603.021z
			 M600.771,57.238c3.51,0,6.75-4.41,6.391-11.52c0-6.12-3.061-10.8-6.48-10.8c-3.779,0-6.391,4.41-6.391,11.25
			C594.291,51.568,596.812,57.238,600.771,57.238z"/>
	</g>
</g>
<g display="none">
	<rect x="292.769" y="179.237" display="inline" width="3.481" height="5.674"/>
	<rect x="298.426" y="179.237" display="inline" width="3.481" height="5.674"/>
	<rect x="304.083" y="179.237" display="inline" width="3.481" height="5.674"/>
	<rect x="309.741" y="179.237" display="inline" width="3.481" height="5.674"/>
	<rect x="315.398" y="179.237" display="inline" width="3.481" height="5.674"/>
	<rect x="321.055" y="179.237" display="inline" width="3.481" height="5.674"/>
	<rect x="326.712" y="179.237" display="inline" width="3.481" height="5.674"/>
	<rect x="332.369" y="179.237" display="inline" width="3.481" height="5.674"/>
	<rect x="338.026" y="179.237" display="inline" width="3.481" height="5.674"/>
	<rect x="343.684" y="179.237" display="inline" width="3.481" height="5.674"/>
	<rect x="349.341" y="179.237" display="inline" width="3.481" height="5.674"/>
	<rect x="354.998" y="179.237" display="inline" width="3.481" height="5.674"/>
	<rect x="360.655" y="179.237" display="inline" width="3.481" height="5.674"/>
</g>
<g>
	<g>
		<path d="M134.205,64.734H98.213l0.593,11.794H88.052l0.592-11.794H39.82V96.44h10.077L16.715,204.344H0v32.201h80.015
			l3.286-65.423h20.256l3.285,65.423h88.072v-32.201h-17.206L134.205,64.734z M87.653,84.466h11.551l0.945,18.826H86.708
			L87.653,84.466z M84.467,147.908l1.605-31.969h14.712l1.606,31.969H84.467z M261.779,113.649h-57.022V145.6h10.321v58.744h-10.321
			v32.201h68.822v-32.201h-11.8V113.649z M238.184,102.585c17.451,0,27.037-11.307,27.037-24.827
			c0-11.303-10.077-25.07-27.037-25.07c-17.206,0-26.546,13.767-26.546,25.07C211.638,89.558,222.699,102.585,238.184,102.585z
			 M515.934,102.585c17.448,0,27.035-11.307,27.035-24.827c0-11.303-10.078-25.07-27.035-25.07
			c-17.209,0-26.549,13.767-26.549,25.07C489.385,89.558,500.448,102.585,515.934,102.585z M339.695,129.379l-7.375-15.73h-46.208
			V145.6h10.569v58.744h-10.815v32.201h69.559v-32.201h-12.29v-25.315c0-21.632,12.536-27.283,34.657-27.283v-44.242
			C352.477,107.503,346.086,117.58,339.695,129.379z M904.451,204.589V52.198h-61.199v31.951h11.307v36.381
			c-4.672-2.95-13.521-9.341-30.97-9.341c-30.235,0-57.023,24.335-57.023,62.679c0,34.166,22.366,64.888,57.023,64.888
			c16.958,0,27.77-8.354,30.97-11.306l4.178,9.096h57.515v-31.956H904.451z M837.106,204.099c-10.813,0-17.699-15.485-17.699-30.231
			c0-18.681,7.131-30.726,17.454-30.726c9.34,0,17.697,12.781,17.697,29.496C855.541,192.055,846.691,204.099,837.106,204.099z
			 M748.648,52.198h-57.025v31.706h10.323v120.44h-10.567v32.201h71.772v-32.201h-14.503V52.198z M446.372,92.754
			c0-8.851,2.458-13.026,7.864-13.026c6.636,0,10.815,1.227,13.519,2.46l14.749-28.268c-6.391-3.195-23.353-6.145-36.132-6.145
			c-44.244,0-48.668,30.968-48.668,44.979v20.895h-10.076V145.6h10.076v58.744h-9.831v32.201h73.248v-32.201h-14.749V145.6h22.365
			v-31.951h-22.365V92.754z M629.213,207.541c-20.644,0-23.84-13.521-25.316-20.156h77.427c5.164-14.007,2.46-32.934-0.49-41.537
			c-7.127-20.65-29.499-35.642-58.747-35.642c-37.115,0-66.118,23.842-66.118,64.153c0,47.191,34.411,66.608,64.893,66.608
			c25.561,0,45.224-5.654,63.414-21.385l-20.65-23.839C650.352,206.801,637.572,207.541,629.213,207.541z M623.563,143.387
			c15.73,0,17.939,10.324,18.185,19.664h-37.11C605.128,156.908,608.569,143.387,623.563,143.387z M539.527,113.649h-57.023V145.6
			h10.321v58.744h-10.321v32.201h68.822v-32.201h-11.799V113.649z"/>
	</g>
</g>
</svg>
